<?xml version="1.0" encoding="UTF-8"?> <svg xmlns="http://www.w3.org/2000/svg" id="Layer_1" viewBox="0 0 14112 1521"><rect x="-.97" y=".35" width="14110.84" height="1517.44" fill="#e6e6e5"></rect><g><rect x="13766.9" y="752.03" width="92.34" height="16.91" fill="#375f70"></rect><rect x="13892.86" y="752.03" width="92.34" height="16.91" fill="#2367bd"></rect><rect x="14018.81" y="752.03" width="92.34" height="16.91" fill="#e7e6c3"></rect><rect x="10223.7" y="752.03" width="92.34" height="16.91" fill="#e7e6c3"></rect><rect x="10356.41" y="569.23" width="92.34" height="382.5" fill="#3c885b"></rect><rect x="12129.46" y="752.03" width="92.34" height="16.91" fill="#e77e24"></rect><rect x="12003.5" y="424.84" width="92.34" height="671.3" fill="#e177a5"></rect><rect x="11877.55" y="247.67" width="92.34" height="1025.64" fill="#920103"></rect><rect x="11751.59" y="108.46" width="92.34" height="1304.05" fill="#7bd1b4"></rect><rect x="11625.63" y="-.37" width="92.34" height="1521.72" fill="#3c885b"></rect><rect x="12255.42" y="662.75" width="92.34" height="195.47" fill="#eabb25"></rect><rect x="12507.33" y="247.67" width="92.34" height="1025.64" fill="#375f70"></rect><rect x="12381.37" y="485.58" width="92.34" height="549.81" fill="#594ab4"></rect><rect x="10608.32" y="485.58" width="92.34" height="549.81" fill="#920103"></rect><rect x="10734.28" y="300.82" width="92.34" height="919.34" fill="#e177a5"></rect><rect x="10482.36" y="448.37" width="92.34" height="624.22" fill="#7bd1b4"></rect><rect x="11112.15" y="752.03" width="92.34" height="16.91" fill="#594ab4"></rect><rect x="10860.23" y="462.46" width="92.34" height="596.04" fill="#e77e24"></rect><rect x="10986.19" y="643.68" width="92.34" height="233.6" fill="#eabb25"></rect><rect x="12885.2" y="543.79" width="92.34" height="433.38" fill="#3c885b"></rect><rect x="12633.29" y="300.82" width="92.34" height="919.34" fill="#2367bd"></rect><rect x="12759.25" y="609.6" width="92.34" height="301.77" fill="#e7e6c3"></rect><rect x="13137.12" y="543.79" width="92.34" height="433.38" fill="#920103"></rect><rect x="13011.16" y="485.58" width="92.34" height="549.81" fill="#7bd1b4"></rect><rect x="13263.07" y="609.6" width="92.34" height="301.77" fill="#e177a5"></rect><rect x="13640.94" y="722.14" width="92.34" height="76.7" fill="#594ab4"></rect><rect x="13514.99" y="662.75" width="92.34" height="195.47" fill="#eabb25"></rect><rect x="13389.03" y="609.6" width="92.34" height="301.77" fill="#e77e24"></rect><rect x="11364.06" y="353.97" width="92.34" height="813.03" fill="#2367bd"></rect><rect x="11490.02" y="247.67" width="92.34" height="1025.64" fill="#e7e6c3"></rect><rect x="11238.11" y="609.6" width="92.34" height="301.77" fill="#375f70"></rect><rect x="2855.57" y="751.94" width="100.39" height="18.39" fill="#2367bd"></rect><rect x="2992.47" y="751.94" width="100.39" height="18.39" fill="#e7e6c3"></rect><rect x="3129.36" y="751.94" width="100.39" height="18.39" fill="#3c885b"></rect><rect x="5730.42" y="751.94" width="100.39" height="18.39" fill="#2367bd"></rect><rect x="5867.32" y="751.94" width="100.39" height="18.39" fill="#e7e6c3"></rect><rect x="6004.22" y="751.94" width="100.39" height="18.39" fill="#3c885b"></rect><rect x="3813.85" y="751.94" width="100.39" height="18.39" fill="#eabb25"></rect><rect x="3950.75" y="751.94" width="100.39" height="18.39" fill="#594ab4"></rect><rect x="3676.97" y="616.51" width="100.36" height="289.25" fill="#e77e24"></rect><rect x="4087.65" y="751.94" width="100.39" height="18.39" fill="#375f70"></rect><rect x="4224.55" y="751.94" width="100.39" height="18.39" fill="#2367bd"></rect><rect x="4361.46" y="616.51" width="100.36" height="289.25" fill="#e7e6c3"></rect><rect x="2034.2" y="440.48" width="100.36" height="641.31" fill="#920103"></rect><rect x="2308" y="440.48" width="100.36" height="641.31" fill="#e77e24"></rect><rect x="2171.1" y="354.33" width="100.36" height="813.6" fill="#e177a5"></rect><rect x="5182.85" y="440.48" width="100.36" height="641.31" fill="#eabb25"></rect><rect x="4909.05" y="159.57" width="100.36" height="1203.11" fill="#e177a5"></rect><rect x="5045.95" y="80.92" width="100.36" height="1360.42" fill="#e77e24"></rect><rect x="1623.51" y="2.27" width="100.36" height="1517.72" fill="#e7e6c3"></rect><rect x="1760.4" y="80.92" width="100.36" height="1360.42" fill="#3c885b"></rect><rect x="1897.3" y="537.86" width="100.36" height="446.55" fill="#7bd1b4"></rect><rect x="2718.69" y="616.51" width="100.36" height="289.25" fill="#375f70"></rect><rect x="2444.89" y="537.86" width="100.36" height="446.55" fill="#eabb25"></rect><rect x="2581.79" y="537.86" width="100.36" height="446.55" fill="#594ab4"></rect><rect x="3266.28" y="616.51" width="100.36" height="289.25" fill="#7bd1b4"></rect><rect x="3403.18" y="616.51" width="100.36" height="289.25" fill="#920103"></rect><rect x="3540.08" y="537.86" width="100.36" height="446.55" fill="#e177a5"></rect><rect x="4772.16" y="264.44" width="100.36" height="993.38" fill="#920103"></rect><rect x="4635.26" y="354.33" width="100.36" height="813.6" fill="#7bd1b4"></rect><rect x="4498.36" y="537.86" width="100.36" height="446.55" fill="#3c885b"></rect><rect x="5593.54" y="440.48" width="100.36" height="641.31" fill="#2367bd"></rect><rect x="5319.75" y="354.33" width="100.36" height="813.6" fill="#594ab4"></rect><rect x="5456.65" y="537.86" width="100.36" height="446.55" fill="#375f70"></rect><rect x="7229.41" y="426.73" width="88.35" height="668.41" fill="#e7e6c3"></rect><rect x="7092.32" y="250.32" width="88.35" height="1021.23" fill="#2367bd"></rect><rect x="6955.24" y="111.71" width="88.35" height="1298.44" fill="#375f70"></rect><rect x="6543.99" y="250.32" width="88.35" height="1021.23" fill="#e77e24"></rect><rect x="6681.08" y="111.71" width="88.35" height="1298.44" fill="#eabb25"></rect><rect x="6818.16" y="3.35" width="88.35" height="1515.17" fill="#594ab4"></rect><rect x="8188.99" y="545.18" width="88.35" height="431.52" fill="#eabb25"></rect><rect x="8463.15" y="545.18" width="88.35" height="431.52" fill="#375f70"></rect><rect x="8326.07" y="487.21" width="88.35" height="547.45" fill="#594ab4"></rect><rect x="7777.74" y="250.32" width="88.35" height="1021.23" fill="#920103"></rect><rect x="7914.82" y="303.24" width="88.35" height="915.38" fill="#e177a5"></rect><rect x="8051.9" y="610.7" width="88.35" height="300.47" fill="#e77e24"></rect><rect x="8874.4" y="663.62" width="88.35" height="194.63" fill="#3c885b"></rect><rect x="8600.23" y="610.7" width="88.35" height="300.47" fill="#2367bd"></rect><rect x="8737.32" y="610.7" width="88.35" height="300.47" fill="#e7e6c3"></rect><rect x="9422.73" y="663.62" width="88.35" height="194.63" fill="#e177a5"></rect><rect x="9559.81" y="663.62" width="88.35" height="194.63" fill="#e77e24"></rect><rect x="9696.9" y="610.7" width="88.35" height="300.47" fill="#eabb25"></rect><rect x="6406.91" y="356.17" width="88.35" height="809.54" fill="#e177a5"></rect><rect x="6269.83" y="610.7" width="88.35" height="300.47" fill="#920103"></rect><rect x="6132.74" y="751.75" width="88.35" height="18.36" fill="#7bd1b4"></rect><rect x="7503.57" y="663.62" width="88.35" height="194.63" fill="#3c885b"></rect><rect x="7640.65" y="487.21" width="88.35" height="547.45" fill="#7bd1b4"></rect><rect x="7366.49" y="751.75" width="88.35" height="18.36" fill="#e7e6c3"></rect><rect x="9011.48" y="751.75" width="88.35" height="18.36" fill="#3c885b"></rect><rect x="9148.56" y="751.75" width="88.35" height="18.36" fill="#7bd1b4"></rect><rect x="9285.65" y="751.75" width="88.35" height="18.36" fill="#920103"></rect><rect x="9833.98" y="663.62" width="88.35" height="194.63" fill="#594ab4"></rect><rect x="10108.14" y="751.75" width="88.35" height="18.36" fill="#2367bd"></rect><rect x="9971.06" y="751.75" width="88.35" height="18.36" fill="#375f70"></rect></g><g><g><path d="M1215.22,707.72v-4.77c0-26.59,.04-53.18-.07-79.77-.01-2.8,.56-3.66,3.52-3.63,15.3,.17,30.61,.17,45.91,0,3.02-.03,3.49,.95,3.49,3.69-.07,81.31-.07,162.61,0,243.92,0,2.84-.46,3.94-3.67,3.9-14.54-.2-29.08-.14-43.62-.03-2.43,.02-3.31-.52-3.21-3.12,.21-5.62,.06-11.24,.06-16.86-.3-.06-.64-.21-.72-.12-14.07,15.87-32.28,22.04-52.85,22.53-25.37,.61-48.04-6.48-66.73-24.24-13.86-13.17-21.98-29.55-25.37-48.26-4.28-23.63-2.4-46.67,8.79-68.21,13.9-26.77,36.49-41.54,66.04-45.73,15.99-2.26,31.76-1.25,46.85,5.24,7.95,3.42,14.84,8.34,21.55,15.45Zm1.01,72.49c.05-5.13-.53-10.19-1.66-15.18-4.2-18.52-17.78-31.6-36.24-34.88-18.81-3.34-37.38,4.43-46.99,20.04-7.56,12.28-9.2,25.81-7.01,39.82,6.64,42.48,51.51,48.59,73.98,30.69,12.99-10.35,17.53-24.51,17.92-40.49Z" fill="#010101"></path><path d="M438.39,692.6c-15.58-8.76-31.77-15.03-49.25-17.42-15.68-2.14-31.29-2.4-46.18,4.14-10.49,4.6-15.93,13.75-14.7,23.94,.81,6.72,4.95,11.03,10.36,14.32,9.51,5.77,20.22,8.21,30.85,10.78,17.92,4.32,36.1,7.7,53.25,14.75,13.76,5.66,26.2,13.21,34.29,26.3,15.21,24.57,9.67,59.86-12.45,80.18-14.21,13.05-31.39,19.83-50.02,22.79-36.72,5.83-72.31,1.48-106.47-13.52-6.07-2.67-11.77-6-17.22-9.81-1.7-1.19-1.9-2.21-1.06-4.04,5.55-12.16,11.04-24.35,16.45-36.57,.86-1.95,1.45-2.33,3.39-1.02,22.81,15.39,48.14,22.85,75.5,23.33,10.45,.18,20.89-.75,30.71-4.93,11.45-4.87,16.88-14.14,14.52-24.69-1.33-5.93-5.34-9.75-10.22-12.77-6.67-4.13-14.08-6.45-21.58-8.49-17.66-4.82-35.77-7.89-53.13-13.85-7.59-2.6-14.96-5.68-21.91-9.74-22.28-13-31.79-32.74-29.68-58.06,2.59-31.13,21.11-49.78,49.02-60.31,21.54-8.13,44.02-9.21,66.68-7.33,21.11,1.76,41.4,6.76,60.18,16.94,5.72,3.1,5.73,3.13,3.24,9.27-4.78,11.79-9.59,23.57-14.57,35.81Z" fill="#010101"></path><path d="M671.62,779.69c.43,47.16-31.41,84.23-79.28,92.13-25.99,4.29-51.21,1.5-74.33-11.78-29.82-17.13-44.83-43.5-45.86-77.87-.71-23.79,6.1-45.12,21.76-63.19,14.66-16.92,33.48-26.83,55.32-30.8,27-4.91,53.07-2.15,77.29,11.58,28.79,16.31,45.1,45.5,45.1,79.92Zm-146.04-1.45c.04,6.81,.55,11.99,1.8,17.1,4.63,18.89,19.99,32.61,38.49,34.32,22,2.04,39.05-7.09,47.46-25.76,5.42-12.03,6.18-24.7,3.48-37.47-3.62-17.11-13.17-29.72-30.27-34.7-17.51-5.1-33.88-2.33-47.32,11.05-10.2,10.16-13.5,23.06-13.64,35.45Z" fill="#010101"></path><path d="M812.68,849.54c-8.71,9.38-18.24,16.24-29.64,19.53-29.3,8.47-57.14,6.26-81.24-14.31-12.74-10.88-18.53-25.9-21.36-42.14-1.3-7.45-1.69-14.96-1.68-22.51,.02-32.47,.07-64.94-.08-97.4-.02-3.47,.92-4.17,4.21-4.13,14.92,.19,29.84,.18,44.76,0,3.14-.04,4.01,.74,4.01,3.96-.08,32.08-.01,64.17,.07,96.25,.01,5.13,.91,10.18,2.4,15.07,3.88,12.67,12.03,20.86,25.35,23.05,18.27,3,35.91-2.44,44.74-19.95,4.16-8.23,5.68-17.13,5.67-26.31,0-29.27,.05-58.54-.08-87.82-.01-3.23,.55-4.33,4.1-4.27,15.04,.24,30.1,.16,45.14,.05,2.63-.02,3.72,.32,3.72,3.43-.11,58.54-.1,117.09-.02,175.63,0,2.7-.72,3.39-3.38,3.37-14.54-.13-29.08-.13-43.61,0-2.62,.02-3.19-.81-3.12-3.25,.17-5.75,.05-11.5,.05-18.25Z" fill="#010101"></path><path d="M924.92,709.11c26.76-23.91,56.99-28.4,89.59-18.18,24.34,7.63,37.48,26,43.13,50.26,1.86,7.99,2.53,16.11,2.51,24.33-.06,33.75-.09,67.5,.07,101.24,.02,3.63-1.06,4.33-4.42,4.29-14.66-.18-29.33-.22-44,.02-3.69,.06-4.3-1.15-4.29-4.49,.12-29.53,.12-59.06,.03-88.59-.02-6.24-.16-12.5-1.61-18.65-4.09-17.34-13.86-26.13-31.63-27.29-16.08-1.05-30.08,3.4-39.35,17.75-4.74,7.34-6.89,15.61-7.33,24.27-.91,17.88-.27,35.78-.39,53.67-.09,13.29-.09,26.59,.04,39.88,.03,2.67-.71,3.44-3.4,3.41-15.3-.13-30.61-.13-45.91,0-2.7,.02-3.36-.74-3.35-3.4,.08-58.55,.08-117.1,0-175.64,0-2.65,.65-3.42,3.35-3.4,14.54,.14,29.08,.13,43.62,0,2.69-.02,3.49,.74,3.4,3.42-.19,5.58-.06,11.17-.06,17.09Z" fill="#010101"></path><path d="M526.92,597.23c5.52-7.95,12.64-10.61,20.96-10.56,12.35,.08,20.37,7.2,21.02,19.57,.57,10.71,.13,21.47,.28,32.2,.03,2.36-1.38,1.82-2.71,1.95-1.92,.19-2.66-.39-2.64-2.49,.11-9.59,.09-19.17,.03-28.76-.04-5.86-1.55-11.17-6.62-14.75-9.9-7.01-25.69-1.66-29.32,9.9-.77,2.45-1.04,4.97-1.03,7.55,.05,8.56-.03,17.13,.06,25.69,.02,2-.3,2.94-2.64,2.93-2.21-.01-2.7-.68-2.7-2.8,.07-23.39,.06-46.79,.02-70.18,0-1.79,.16-2.84,2.4-2.76,1.97,.07,2.97,.33,2.93,2.71-.13,9.58-.06,19.17-.06,29.8Z" fill="#070707"></path><path d="M611.82,615.05c-6.63,0-13.25,.09-19.87-.05-2.28-.05-2.76,.56-2.37,2.79,1.4,7.92,5.53,13.71,13.1,16.49,8.42,3.08,16.5,2.34,23.71-3.52,1.11-.9,1.82-2.91,3.75-.6,1.7,2.04,.81,3.05-.74,4.3-9.28,7.47-19.55,8.21-30.12,3.72-10.06-4.27-14.7-12.62-14.94-23.34-.48-20.96,17.46-33.9,35.77-25.94,9.02,3.92,15.25,14.08,14.91,23.91-.08,2.41-1.34,2.25-2.94,2.24-6.75-.02-13.5-.01-20.26-.01Zm-2.16-4.24c5.86,0,11.71-.09,17.56,.04,2.15,.05,2.57-.69,2.26-2.67-1.47-9.39-9.71-16.61-19.39-16.9-9.8-.29-18.36,6.6-20.26,16.25-.44,2.25-.27,3.47,2.65,3.35,5.72-.24,11.45-.07,17.18-.07Z" fill="#070707"></path><path d="M477.92,607.02c0-9.96-.09-19.92,.06-29.87,.04-2.62-.58-3.54-3.34-3.45-6.49,.21-12.99,.04-19.48,.08-1.77,.01-3.09,.12-3.1-2.48,0-2.79,1.64-2.29,3.23-2.29,16.81,0,33.62,0,50.44-.02,1.74,0,3.06-.22,3.07,2.42,0,2.74-1.5,2.36-3.14,2.35-6.37-.01-12.74,.14-19.1-.07-2.78-.09-3.31,.87-3.3,3.44,.1,19.91,.05,39.83,.06,59.74,0,1.92,.43,3.58-2.72,3.62-3.28,.04-2.66-1.79-2.66-3.62,0-9.96,0-19.92,0-29.87Z" fill="#070707"></path></g><rect x="258.67" y="499.77" width="1027.16" height="461.15" fill="none"></rect><g><path d="M1205.24,954.11c-8.29,11.69-24.37,10.11-31.61,2.95-7.63-7.54-7.64-21.05-.09-28.69,6.96-7.03,23.41-8.98,31.86,3.06v-8.33h3.77c.07,.24,.17,.42,.17,.61-.01,12.86,.1,25.72-.1,38.58-.1,6.07-2.08,11.51-7.68,14.8-8.04,4.72-23.33,3.05-30.27-3.21-.19-.17-.34-.4-.62-.74,.64-.92,1.27-1.83,2.01-2.88,.48,.32,.92,.57,1.32,.87,6.48,4.85,13.75,6.02,21.47,4.29,5.95-1.34,9.24-5.57,9.76-12.18,.23-2.92,.04-5.88,.04-9.14Zm-33.25-11.45c0,9.53,7.05,16.47,16.7,16.45,9.7-.02,16.73-6.9,16.79-16.41,.06-9.43-7.05-16.41-16.75-16.43-9.73-.02-16.73,6.84-16.74,16.39Z"></path><path d="M676.54,964.08h-3.86v-2.16c0-7.3,.02-14.6-.02-21.91,0-1.26-.09-2.55-.35-3.78-1.34-6.47-5.55-9.88-12.16-9.96-9.04-.11-15.03,5.94-15.19,15.53-.11,6.63-.02,13.26-.02,19.9,0,.73,0,1.47,0,2.35h-4.01c0-1.01,0-1.99,0-2.98,0-7.23,.03-14.47-.01-21.7-.04-6.01-2.92-10.69-7.68-12.25-7.8-2.55-19.14,.32-19.92,13.32-.42,7.01-.12,14.06-.14,21.1,0,.79,0,1.59,0,2.53h-3.92v-40.95h3.82v7.33c4-5.65,9.5-7.86,15.99-7.75,6.63,.11,11.92,2.68,14.65,9.57,2.24-3.89,5.02-6.66,8.91-8.15,4.59-1.76,9.27-1.97,13.94-.49,6.2,1.98,9.54,6.68,9.86,12.85,.46,9.14,.12,18.32,.12,27.6Z"></path><path d="M490.89,908.99h3.97v25.2h36.59v-25.15h4.07v54.98h-3.99v-25.92h-36.67v25.92h-3.97v-55.04Z"></path><path d="M1150.38,932.05v-26.33h3.83v58.33h-3.83v-9.09c-4.06,6.49-9.54,9.39-16.49,9.49-5.88,.08-10.98-1.83-15.14-6.13-7.74-7.99-7.19-23.18,.96-30.54,7.49-6.77,22.71-7.95,30.67,4.27Zm-16.53,28.79c9.57-.01,16.47-7.2,16.48-17.18,.01-10.08-6.95-17.42-16.52-17.4-9.62,.02-16.46,7.28-16.44,17.43,.02,10.01,6.89,17.16,16.48,17.15Z"></path><path d="M970.39,922.98c.88,0,1.55,.07,2.2-.02,1.2-.16,1.72,.36,2.14,1.49,3.95,10.73,7.96,21.43,11.95,32.14,.3,.81,.62,1.62,1.08,2.78,.39-.93,.69-1.57,.94-2.22,4.13-10.8,8.27-21.61,12.35-32.43,.45-1.18,.89-1.82,2.34-1.82,1.5,0,2.05,.58,2.54,1.88,4.27,11.39,8.6,22.75,13.12,34.66,4.71-12.43,9.24-24.42,13.77-36.38h3.72c-1.58,4.2-3.09,8.26-4.63,12.31-3.41,9-6.86,17.99-10.22,27.01-.49,1.33-1.08,1.84-2.54,1.87-1.56,.04-2.2-.56-2.72-1.93-3.99-10.43-8.04-20.83-12.07-31.24-.26-.67-.54-1.33-.97-2.36-2.73,6.98-5.3,13.56-7.87,20.14-1.82,4.67-3.7,9.32-5.42,14.03-.51,1.41-1.46,1.26-2.53,1.31-1.09,.05-1.81-.12-2.27-1.36-4.85-12.96-9.77-25.9-14.66-38.84-.09-.24-.13-.51-.26-1.03Z"></path><path d="M358.6,964.04c1.9-4.12,3.71-8.05,5.51-11.99,6.32-13.79,12.67-27.56,18.91-41.38,.69-1.53,1.57-1.76,3.03-1.81,1.52-.05,2.2,.5,2.81,1.85,7.84,17.21,15.74,34.39,23.62,51.57,.24,.52,.43,1.08,.76,1.93-1.01,0-1.79-.08-2.55,.02-1.33,.16-2.02-.35-2.56-1.61-1.77-4.11-3.71-8.15-5.51-12.25-.51-1.17-1.09-1.7-2.49-1.69-9.48,.08-18.97,.07-28.46,.01-1.24,0-1.88,.33-2.38,1.51-1.53,3.63-3.21,7.2-4.84,10.79q-1.57,3.47-5.85,3.05Zm41.62-18.93c-4.8-10.57-9.47-20.85-14.33-31.56-4.85,10.76-9.5,21.08-14.23,31.56h28.56Z"></path><path d="M836.21,937.62c-4.05,3.8-7.98,7.43-11.81,11.16-.57,.56-.9,1.61-.92,2.44-.09,4.22-.04,8.44-.04,12.81h-3.93v-55.03h3.84v34.63c3.54-3.39,7.13-6.65,10.52-10.1,7.69-7.83,15.3-15.73,22.89-23.66,1.68-1.75,3.65-.55,5.71-.65-7.93,8.23-15.87,16.45-23.92,24.8,8.54,9.95,17.02,19.82,25.53,29.74-2.84,1.02-4.55,.61-6.36-1.47-6.89-7.93-13.78-15.86-20.67-23.79-.39-.45-.81-.87-.83-.89Z"></path><path d="M1069,944.66c-.39,5.63,3.26,11.58,8.62,14.28,7.13,3.59,14.72,2.3,21.63-3.76,.73,.85,1.45,1.7,2.22,2.59-3.26,3.97-7.52,5.81-12.35,6.53-8.9,1.32-17.48-2.6-21.61-9.89-5.33-9.4-3.18-25.38,9.64-30.37,13.54-5.27,27.63,4.94,26.83,19.44-.02,.32-.11,.64-.21,1.17h-34.78Zm30.98-3.34c-.35-9.05-7.62-15.62-16.47-15.1-8.11,.47-15.06,7.7-14.43,15.1h30.9Z"></path><path d="M1262.29,944.65h-34.87c-.69,5.16,2.97,11.33,8.26,14.16,7,3.74,15,2.47,21.91-3.61,.72,.82,1.44,1.65,2.22,2.54-3.1,3.84-7.19,5.66-11.86,6.48-9.15,1.6-18.24-2.54-22.34-10.25-5.23-9.83-2.13-23.1,6.93-28.43,6.96-4.1,14.22-4.05,21.05,.32,6.63,4.25,8.9,10.83,8.7,18.79Zm-4.1-3.36c.51-8.05-7.01-15.23-15.69-15.09-8.36,.13-15.71,7.45-15.04,15.09h30.73Z"></path><path d="M720.22,940.85c-.11-2.06-.04-4.16-.38-6.18-.86-5.04-4.49-7.99-10.27-8.4-5.32-.37-10.19,.98-14.52,4.14-.43,.31-.87,.6-1.37,.94-.65-.95-1.25-1.82-1.93-2.81,3.41-3.07,7.38-4.65,11.7-5.43,3.79-.68,7.59-.67,11.31,.45,5.86,1.75,9.15,6.15,9.32,13.25,.21,8.84,.05,17.69,.04,26.53,0,.19-.09,.38-.16,.71h-3.63v-6.79c-2.93,4.15-6.56,6.27-11.02,6.92-4.16,.6-8.27,.45-12.17-1.37-4.49-2.1-6.81-6.11-6.45-11.02,.35-4.8,2.97-8.18,7.84-9.51,2.48-.68,5.11-.98,7.69-1.09,4.4-.18,8.82-.07,13.23-.09,.12,0,.25-.08,.76-.25Zm-.36,3.7c-5.5,0-11.02-.04-16.53,.03-1.11,.01-2.25,.32-3.32,.68-4.21,1.4-6.23,5.24-5.01,9.54,1.18,4.14,4.45,5.6,8.28,6.17,9.42,1.41,19.28-4.18,16.58-16.42Z"></path><path d="M944.74,964.47c-12.1-.01-20.59-8.72-20.57-21.11,.01-11.95,8.75-20.73,20.61-20.71,12.02,.02,20.58,8.82,20.57,21.15-.01,11.99-8.68,20.68-20.61,20.67Zm.05-3.62c9.54-.02,16.43-7.19,16.51-17.2,.09-9.93-7.05-17.4-16.59-17.38-9.47,.03-16.43,7.3-16.53,17.25-.09,9.97,6.97,17.35,16.6,17.33Z"></path><path d="M303.66,943.73c0,12.17-8.6,20.78-20.68,20.74-11.95-.05-20.6-8.94-20.47-21.02,.13-12.08,8.72-20.78,20.55-20.8,12.04-.02,20.61,8.75,20.6,21.08Zm-4.06-.24c-.05-5.18-1.58-9.81-5.62-13.21-5.29-4.45-11.33-5.22-17.63-2.55-6.22,2.63-9.18,7.77-9.63,14.34-.48,7.06,1.76,13.04,8.16,16.66,10.1,5.72,24.78,.02,24.72-15.23Z"></path><path d="M778.38,964.08h-3.72c-.03-.76-.09-1.46-.09-2.17,0-7.1,.03-14.2-.03-21.29-.02-1.79-.15-3.63-.6-5.36-1.46-5.71-5.79-8.81-12.22-8.99-9.52-.26-15.8,5.91-15.89,15.69-.06,6.56-.01,13.12-.01,19.69,0,.73,0,1.46,0,2.37h-3.89v-40.89h3.63v7.78c.27-.06,.45-.04,.49-.11,4.92-8.54,16.53-9.66,23.61-6.64,5.39,2.3,8.36,6.73,8.61,12.33,.41,9.14,.11,18.31,.11,27.58Z"></path><path d="M586.98,923.04h3.86v41.03h-3.56v-8.13c-.62,.78-.92,1.13-1.18,1.51-5.83,8.45-20.15,9.61-27.25,2.21-2.68-2.79-4-6.28-4.08-10.01-.2-8.7-.09-17.41-.1-26.12,0-.12,.1-.23,.19-.45h3.77v2.16c0,7.03-.03,14.07,.02,21.1,.01,1.73,.13,3.5,.52,5.18,1.1,4.71,3.98,7.76,8.77,8.88,10.59,2.49,18.88-3.97,19.02-14.93,.09-6.7,.02-13.4,.02-20.1,0-.73,0-1.45,0-2.34Z"></path><path d="M874.13,923.04h3.75v7.61c.21,.15,.41,.31,.62,.46,.12-.35,.19-.73,.38-1.04,5.38-8.65,19.23-9.11,25.63-4.51,4.13,2.97,6.09,7.2,6.23,12.04,.25,8.76,.07,17.54,.07,26.45h-3.96v-6.22c0-5.76,0-11.52,0-17.28,0-8.85-4.22-13.74-12.3-14.27-8.59-.57-15.42,4.69-16.14,12.97-.5,5.79-.29,11.64-.37,17.46-.03,2.4,0,4.81,0,7.35h-3.92v-41.02Z"></path><path d="M322.17,964.08h-4v-37.46h-7.36v-3.57h7.3c0-.78-.01-1.41,0-2.04,.04-1.94-.08-3.9,.16-5.82,.87-7.15,6.02-10.96,13.35-9.74,2.1,.35,4.09,1.34,6.38,2.11-.75,1.41-1.24,2.34-1.47,2.78-2.81-.52-5.34-1.31-7.9-1.4-3.26-.11-5.64,1.95-6.16,5.2-.45,2.81-.4,5.7-.58,8.76h13.17v3.53h-12.89v37.64Z"></path><path d="M445.7,905.72h3.77v58.36h-3.77v-58.36Z"></path><path d="M423.6,905.75h3.77v58.29h-3.77v-58.29Z"></path><path d="M1051.06,964.06h-3.8v-58.26h3.8v58.26Z"></path><path d="M1279.01,960.97c.06,1.91-1.46,3.48-3.38,3.49-1.86,0-3.28-1.38-3.36-3.27-.08-1.89,1.47-3.53,3.34-3.53,1.75,0,3.34,1.55,3.39,3.32Z"></path></g><rect x="258.67" y="896.85" width="1026.43" height="88.06" fill="none"></rect></g></svg> 